<svg width="89" height="78" viewBox="0 0 89 78" fill="none" xmlns="http://www.w3.org/2000/svg">
<path d="M16.4117 54.9395L0 45.4618V26.5144L16.4117 17.0368L25.6076 22.0965V27.9662L16.4117 22.4604L4.69577 29.2223V42.7539L16.4117 49.5159L25.6076 44.0101V49.4885L16.4117 54.9395Z" fill="white"/>
<path d="M54.1738 73.3586H49.478V63.1296L56.3025 59.1891V45.3053L28.124 29.6371L28.1788 10.4666L44.5866 0.99292L60.9983 10.4705V29.418L51.8259 34.6185L47.1301 31.8793L56.3025 26.7101V13.1784L44.5866 6.41653L32.8668 13.1823L32.8276 26.8822L60.9983 42.5426V61.897L54.1738 65.8375V73.3586Z" fill="white"/>
<path d="M39.3057 73.3585H34.61V65.6144L28.1768 61.8148V42.6169L37.3492 37.3577L42.0449 40.0969L33.0447 45.1839V59.1891L39.3057 62.9026V73.3585Z" fill="white"/>
<path d="M72.5885 54.9395L89.0002 45.4618V26.5144L72.5885 17.0368L63.3926 22.0965V27.9662L72.5885 22.4604L84.3044 29.2223V42.7539L72.5885 49.5159L63.3926 44.0101V49.4885L72.5885 54.9395Z" fill="white"/>
<path d="M46.7407 64.7496L44.3928 65.9235L42.0449 64.7496V77.2716H46.7407V64.7496Z" fill="white"/>
</svg>
