<svg width="14" height="75" viewBox="0 0 14 75" fill="none" xmlns="http://www.w3.org/2000/svg">
<path d="M6.5704 74.47L13.1504 63.07L7.0704 63.07C7.0404 63.06 7.0004 63.04 6.9704 63.04C6.8404 63.01 6.7104 63 6.5704 63C6.4004 63 6.2304 63.03 6.0704 63.07L0.000396725 63.07L6.5704 74.47Z" fill="#001529"/>
<path d="M7.15039 22C6.04582 22 5.15039 21.1046 5.15039 20C5.15039 18.8954 6.04582 18 7.15039 18C8.25496 18 9.15039 18.8954 9.15039 20C9.15039 21.1046 8.25496 22 7.15039 22Z" fill="#001529"/>
<path d="M7.15039 13C6.04582 13 5.15039 12.1046 5.15039 11C5.15039 9.89543 6.04582 9 7.15039 9C8.25496 9 9.15039 9.89543 9.15039 11C9.15039 12.1046 8.25496 13 7.15039 13Z" fill="#001529"/>
<path d="M7.15039 4C6.04582 4 5.15039 3.10457 5.15039 2C5.15039 0.89543 6.04582 0 7.15039 0C8.25496 0 9.15039 0.89543 9.15039 2C9.15039 3.10457 8.25496 4 7.15039 4Z" fill="#001529"/>
<path d="M7.15039 31C6.04582 31 5.15039 30.1046 5.15039 29C5.15039 27.8954 6.04582 27 7.15039 27C8.25496 27 9.15039 27.8954 9.15039 29C9.15039 30.1046 8.25496 31 7.15039 31Z" fill="#001529"/>
<path d="M7.15039 40C6.04582 40 5.15039 39.1046 5.15039 38C5.15039 36.8954 6.04582 36 7.15039 36C8.25496 36 9.15039 36.8954 9.15039 38C9.15039 39.1046 8.25496 40 7.15039 40Z" fill="#001529"/>
<path d="M7.15039 49C6.04582 49 5.15039 48.1046 5.15039 47C5.15039 45.8954 6.04582 45 7.15039 45C8.25496 45 9.15039 45.8954 9.15039 47C9.15039 48.1046 8.25496 49 7.15039 49Z" fill="#001529"/>
<path d="M7.15039 58C6.04582 58 5.15039 57.1046 5.15039 56C5.15039 54.8954 6.04582 54 7.15039 54C8.25496 54 9.15039 54.8954 9.15039 56C9.15039 57.1046 8.25496 58 7.15039 58Z" fill="#001529"/>
</svg>
