<svg width="56" height="49" viewBox="0 0 56 49" fill="none" xmlns="http://www.w3.org/2000/svg">
<path fill-rule="evenodd" clip-rule="evenodd" d="M13.8962 0L41.6886 1.20277e-06L55.5847 24.0689L41.6886 48.1378L13.8962 48.1378L0 24.0689L13.8962 0ZM15.6886 3.10448L3.58474 24.0689L15.6886 45.0333H39.8962L52 24.0689L39.8962 3.10448L15.6886 3.10448Z" fill="#001529"/>
<path d="M26.9609 12.2656H24.7734V10H26.9609V12.2656ZM39.8125 10H37.6797V12.2656H39.8125V14.4746H42V12.2656C42 11.0144 41.0205 10 39.8125 10ZM31.2266 10H29.0391V12.2656H31.2266V10ZM35.4922 10H33.3047V12.2656H35.4922V10ZM22.6953 10H20.5078V12.2656H22.6953V10ZM14 12.2656V14.4746H16.1875V12.2656H18.2656V10H16.1875C14.9795 10 14 11.0144 14 12.2656ZM24.6641 39H26.8516V36.7344H24.6641V39ZM39.8125 36.7344H37.6797V39H39.8125C41.0205 39 42 37.9856 42 36.7344V34.4688H39.8125V36.7344ZM28.9297 39H31.1172V36.7344H28.9297V39ZM33.3047 39H35.4922V36.7344H33.3047V39ZM20.3984 39H22.5859V36.7344H20.3984V39ZM39.8125 23.3672H42V21.1016H39.8125V23.3672ZM39.8125 27.7852H42V25.5195H39.8125V27.7852ZM39.8125 32.3164H42V30.0508H39.8125V32.3164ZM39.8125 18.9492H42V16.6836H39.8125V18.9492ZM16.1875 21.1016H14V23.3672H16.1875V21.1016ZM16.1875 25.5195H14V27.7852H16.1875V25.5195ZM16.1875 30.0508H14V32.3164H16.1875V30.0508ZM16.1875 16.6836H14V18.9492H16.1875V16.6836ZM16.1875 34.4688H14V36.7344C14 37.9856 14.9795 39 16.1875 39H18.2656V36.7344H16.1875V34.4688ZM18.375 14.4746H37.625V23.3672H18.375V14.4746ZM20.5625 21.1016H35.4375V16.7402H20.5625V21.1016ZM18.375 25.6328H26.9062V34.5254H18.375V25.6328ZM20.5625 32.2598H24.7188V27.8984H20.5625V32.2598ZM29.0938 25.6328H37.625V34.5254H29.0938V25.6328ZM31.2812 32.2598H35.4375V27.8984H31.2812V32.2598Z" fill="#001529"/>
</svg>
