<svg width="56" height="49" viewBox="0 0 56 49" fill="none" xmlns="http://www.w3.org/2000/svg">
<path fill-rule="evenodd" clip-rule="evenodd" d="M13.8962 0L41.6886 1.20277e-06L55.5847 24.0689L41.6886 48.1378L13.8962 48.1378L0 24.0689L13.8962 0ZM15.6886 3.10448L3.58474 24.0689L15.6886 45.0333H39.8962L52 24.0689L39.8962 3.10448L15.6886 3.10448Z" fill="#001529"/>
<path d="M27.7925 25.0154V27.3615L26.3848 28.7692L27.7925 30.6461V32.523H30.1386L31.5463 34.4L32.954 32.523H35.3001V30.6461L37.1771 28.7692L35.3001 27.3615V25.0154H32.954L31.5463 23.1384L30.1386 25.0154H27.7925Z" stroke="#001529" stroke-width="3" stroke-linecap="round" stroke-linejoin="round"/>
<path d="M28.2615 35.8077H17V10H39.5231V35.8077H34.3615" stroke="#001529" stroke-width="3" stroke-linecap="round"/>
<path d="M28.7305 32.054V40.5001L31.5459 38.6232L34.3612 40.5001V32.054" stroke="#001529" stroke-width="3" stroke-linecap="round" stroke-linejoin="round"/>
</svg>
