<svg width="56" height="49" viewBox="0 0 56 49" fill="none" xmlns="http://www.w3.org/2000/svg">
<path fill-rule="evenodd" clip-rule="evenodd" d="M13.8962 0L41.6886 1.20277e-06L55.5847 24.0689L41.6886 48.1378L13.8962 48.1378L0 24.0689L13.8962 0ZM15.6886 3.10448L3.58474 24.0689L15.6886 45.0333H39.8962L52 24.0689L39.8962 3.10448L15.6886 3.10448Z" fill="#001529"/>
<path d="M20.8555 39.5001L27.3809 32.0425V39.5001" stroke="#001529" stroke-width="3" stroke-linecap="square" stroke-linejoin="round"/>
<path d="M35.0361 38.5124L36.0238 39.6412L33.7661 41.6167L32.7784 40.4879L35.0361 38.5124ZM26.2529 33.0302C25.7074 32.4068 25.7706 31.4591 26.394 30.9136C27.0175 30.3681 27.9651 30.4313 28.5107 31.0547L26.2529 33.0302ZM32.7784 40.4879L26.2529 33.0302L28.5107 31.0547L35.0361 38.5124L32.7784 40.4879Z" fill="#001529"/>
<path d="M39.9657 13.8645H14.3301V31.1103H39.9657V13.8645Z" stroke="#001529" stroke-width="3"/>
<line x1="42.7627" y1="13.5" x2="12" y2="13.5" stroke="#001529" stroke-width="3"/>
<line x1="42.7627" y1="32.144" x2="12" y2="32.144" stroke="#001529" stroke-width="3"/>
</svg>
