<svg width="56" height="49" viewBox="0 0 56 49" fill="none" xmlns="http://www.w3.org/2000/svg">
<path fill-rule="evenodd" clip-rule="evenodd" d="M13.8962 0L41.6886 1.20277e-06L55.5847 24.0689L41.6886 48.1378L13.8962 48.1378L0 24.0689L13.8962 0ZM15.6886 3.10448L3.58474 24.0689L15.6886 45.0333H39.8962L52 24.0689L39.8962 3.10448L15.6886 3.10448Z" fill="#001529"/>
<path d="M11 24H15" stroke="#001529" stroke-width="3" stroke-linecap="square"/>
<path d="M44 24H40" stroke="#001529" stroke-width="3" stroke-linecap="square"/>
<path d="M15.7188 11.7144L18.7189 14.7145" stroke="#001529" stroke-width="3" stroke-linecap="square"/>
<path d="M39.4629 11.7144L36.4627 14.7145" stroke="#001529" stroke-width="3" stroke-linecap="square"/>
<path d="M28 7L28 11" stroke="#001529" stroke-width="3" stroke-linecap="square"/>
<mask id="path-7-inside-1_862_1923" fill="white">
<path fill-rule="evenodd" clip-rule="evenodd" d="M32.5825 30.8808C34.9266 29.2654 36.4631 26.5622 36.4631 23.5001C36.4631 18.5532 32.4529 14.543 27.506 14.543C22.5591 14.543 18.5488 18.5532 18.5488 23.5001C18.5488 26.5622 20.0854 29.2655 22.4295 30.8808C22.3584 31.137 22.3203 31.4069 22.3203 31.6858V33.2286C22.3203 34.8855 23.6635 36.2286 25.3203 36.2286H29.6917C31.3486 36.2286 32.6917 34.8855 32.6917 33.2287V31.6858C32.6917 31.4069 32.6537 31.137 32.5825 30.8808Z"/>
</mask>
<path d="M32.5825 30.8808L30.8802 28.4105C29.8265 29.1366 29.3494 30.4511 29.692 31.684L32.5825 30.8808ZM22.4295 30.8808L25.32 31.684C25.6626 30.4511 25.1855 29.1366 24.1318 28.4106L22.4295 30.8808ZM33.4631 23.5001C33.4631 25.534 32.4466 27.3311 30.8802 28.4105L34.2848 33.351C37.4066 31.1997 39.4631 27.5904 39.4631 23.5001H33.4631ZM27.506 17.543C30.796 17.543 33.4631 20.2101 33.4631 23.5001H39.4631C39.4631 16.8964 34.1097 11.543 27.506 11.543V17.543ZM21.5488 23.5001C21.5488 20.2101 24.2159 17.543 27.506 17.543V11.543C20.9022 11.543 15.5488 16.8964 15.5488 23.5001H21.5488ZM24.1318 28.4106C22.5654 27.3311 21.5488 25.534 21.5488 23.5001H15.5488C15.5488 27.5905 17.6054 31.1998 20.7272 33.3511L24.1318 28.4106ZM25.3203 31.6858C25.3203 31.683 25.3205 31.6818 25.3205 31.682C25.3204 31.6822 25.3203 31.6829 25.32 31.684L19.539 30.0777C19.3959 30.5929 19.3203 31.1329 19.3203 31.6858H25.3203ZM25.3203 33.2286V31.6858H19.3203V33.2286H25.3203ZM25.3203 33.2286V33.2286H19.3203C19.3203 36.5424 22.0066 39.2286 25.3203 39.2286V33.2286ZM29.6917 33.2286H25.3203V39.2286H29.6917V33.2286ZM29.6917 33.2287V33.2286V39.2286C33.0054 39.2286 35.6917 36.5424 35.6917 33.2287H29.6917ZM29.6917 31.6858V33.2287H35.6917V31.6858H29.6917ZM29.692 31.684C29.6917 31.6829 29.6916 31.6822 29.6916 31.682C29.6916 31.6818 29.6917 31.683 29.6917 31.6858H35.6917C35.6917 31.1329 35.6161 30.5928 35.473 30.0776L29.692 31.684Z" fill="#001529" mask="url(#path-7-inside-1_862_1923)"/>
<path d="M25 34L30 34V40H25V34Z" stroke="#001529" stroke-width="3"/>
</svg>
