<svg width="100%" height="100%" viewBox="0 0 213 62" fill="none" xmlns="http://www.w3.org/2000/svg">
<path d="M205.39 44.7289C205.44 44.8489 205.5 44.9689 205.57 45.0789C205.65 45.1889 205.73 45.2889 205.82 45.3789C206.57 46.1289 207.91 46.1289 208.65 45.3789C208.74 45.2889 208.83 45.1889 208.9 45.0789C208.97 44.9689 209.03 44.8489 209.08 44.7289C209.13 44.6089 209.17 44.4889 209.2 44.3589C209.22 44.2289 209.24 44.0989 209.24 43.9689C209.24 43.4289 209.03 42.9289 208.65 42.5489C208.46 42.3689 208.24 42.2189 208 42.1189C207.76 42.0189 207.5 41.9689 207.24 41.9689C206.7 41.9689 206.2 42.1789 205.82 42.5489C205.73 42.6489 205.65 42.7489 205.57 42.8589C205.5 42.9689 205.44 43.0789 205.39 43.1989C205.34 43.3189 205.3 43.4489 205.27 43.5689C205.25 43.6989 205.24 43.8289 205.24 43.9689C205.24 44.0989 205.25 44.2289 205.28 44.3589C205.3 44.4889 205.34 44.6089 205.39 44.7289Z" fill="white"/>
<path d="M207.24 32.8701C206.136 32.8701 205.24 33.7655 205.24 34.8701C205.24 35.9747 206.136 36.8701 207.24 36.8701C208.345 36.8701 209.24 35.9747 209.24 34.8701C209.24 33.7655 208.345 32.8701 207.24 32.8701Z" fill="white"/>
<path d="M207.24 14.0098C206.136 14.0098 205.24 14.9052 205.24 16.0098C205.24 17.1143 206.136 18.0098 207.24 18.0098C208.345 18.0098 209.24 17.1143 209.24 16.0098C209.24 14.9052 208.345 14.0098 207.24 14.0098Z" fill="white"/>
<path d="M207.24 23.4399C206.136 23.4399 205.24 24.3354 205.24 25.4399C205.24 26.5445 206.136 27.4399 207.24 27.4399C208.345 27.4399 209.24 26.5445 209.24 25.4399C209.24 24.3354 208.345 23.4399 207.24 23.4399Z" fill="white"/>
<path d="M205.39 7.34024C205.44 7.46024 205.5 7.58025 205.57 7.69025C205.65 7.80025 205.73 7.90023 205.82 7.99023C206.57 8.74023 207.91 8.74023 208.65 7.99023C208.74 7.90023 208.83 7.80025 208.9 7.69025C208.97 7.58025 209.03 7.46024 209.08 7.34024C209.13 7.22024 209.17 7.09025 209.2 6.97025C209.22 6.84025 209.24 6.71025 209.24 6.57025C209.24 6.04025 209.03 5.54025 208.65 5.16025C208.46 4.97025 208.24 4.83022 208 4.73022C207.76 4.63022 207.5 4.58023 207.24 4.58023C206.7 4.58023 206.2 4.78025 205.82 5.16025C205.73 5.25025 205.65 5.36025 205.57 5.47025C205.5 5.57025 205.44 5.69024 205.39 5.81024C205.34 5.93024 205.3 6.05024 205.27 6.18024C205.25 6.31024 205.24 6.44025 205.24 6.57025C205.24 6.71025 205.25 6.84025 205.28 6.97025C205.3 7.09025 205.34 7.22024 205.39 7.34024Z" fill="white"/>
<path d="M198.471 8.58008C199.571 8.58008 200.471 7.68008 200.471 6.58008C200.471 5.47008 199.571 4.58008 198.471 4.58008C197.361 4.58008 196.461 5.47008 196.461 6.58008C196.461 7.68008 197.361 8.58008 198.471 8.58008Z" fill="white"/>
<path d="M135.471 8.58008C136.571 8.58008 137.471 7.68008 137.471 6.58008C137.471 5.47008 136.571 4.58008 135.471 4.58008C134.361 4.58008 133.461 5.47008 133.461 6.58008C133.461 7.68008 134.361 8.58008 135.471 8.58008Z" fill="white"/>
<path d="M153.471 4.58008C152.366 4.58008 151.471 5.47551 151.471 6.58008C151.471 7.68465 152.366 8.58008 153.471 8.58008C154.575 8.58008 155.471 7.68465 155.471 6.58008C155.471 5.47551 154.575 4.58008 153.471 4.58008Z" fill="white"/>
<path d="M90.4707 4.58008C89.3661 4.58008 88.4707 5.47551 88.4707 6.58008C88.4707 7.68465 89.3661 8.58008 90.4707 8.58008C91.5753 8.58008 92.4707 7.68465 92.4707 6.58008C92.4707 5.47551 91.5753 4.58008 90.4707 4.58008Z" fill="white"/>
<path d="M36.4707 4.58008C35.3661 4.58008 34.4707 5.47551 34.4707 6.58008C34.4707 7.68465 35.3661 8.58008 36.4707 8.58008C37.5753 8.58008 38.4707 7.68465 38.4707 6.58008C38.4707 5.47551 37.5753 4.58008 36.4707 4.58008Z" fill="white"/>
<path d="M72.4707 4.58008C71.3661 4.58008 70.4707 5.47551 70.4707 6.58008C70.4707 7.68465 71.3661 8.58008 72.4707 8.58008C73.5753 8.58008 74.4707 7.68465 74.4707 6.58008C74.4707 5.47551 73.5753 4.58008 72.4707 4.58008Z" fill="white"/>
<path d="M18.4707 4.58008C17.3661 4.58008 16.4707 5.47551 16.4707 6.58008C16.4707 7.68465 17.3661 8.58008 18.4707 8.58008C19.5753 8.58008 20.4707 7.68465 20.4707 6.58008C20.4707 5.47551 19.5753 4.58008 18.4707 4.58008Z" fill="white"/>
<path d="M162.469 4.58008C161.364 4.58008 160.469 5.47551 160.469 6.58008C160.469 7.68465 161.364 8.58008 162.469 8.58008C163.573 8.58008 164.469 7.68465 164.469 6.58008C164.469 5.47551 163.573 4.58008 162.469 4.58008Z" fill="white"/>
<path d="M99.4707 4.58008C98.3661 4.58008 97.4707 5.47551 97.4707 6.58008C97.4707 7.68465 98.3661 8.58008 99.4707 8.58008C100.575 8.58008 101.471 7.68465 101.471 6.58008C101.471 5.47551 100.575 4.58008 99.4707 4.58008Z" fill="white"/>
<path d="M45.4707 4.58008C44.3661 4.58008 43.4707 5.47551 43.4707 6.58008C43.4707 7.68465 44.3661 8.58008 45.4707 8.58008C46.5753 8.58008 47.4707 7.68465 47.4707 6.58008C47.4707 5.47551 46.5753 4.58008 45.4707 4.58008Z" fill="white"/>
<path d="M171.471 4.58008C170.366 4.58008 169.471 5.47551 169.471 6.58008C169.471 7.68465 170.366 8.58008 171.471 8.58008C172.575 8.58008 173.471 7.68465 173.471 6.58008C173.471 5.47551 172.575 4.58008 171.471 4.58008Z" fill="white"/>
<path d="M108.471 4.58008C107.366 4.58008 106.471 5.47551 106.471 6.58008C106.471 7.68465 107.366 8.58008 108.471 8.58008C109.575 8.58008 110.471 7.68465 110.471 6.58008C110.471 5.47551 109.575 4.58008 108.471 4.58008Z" fill="white"/>
<path d="M54.4707 4.58008C53.3661 4.58008 52.4707 5.47551 52.4707 6.58008C52.4707 7.68465 53.3661 8.58008 54.4707 8.58008C55.5753 8.58008 56.4707 7.68465 56.4707 6.58008C56.4707 5.47551 55.5753 4.58008 54.4707 4.58008Z" fill="white"/>
<path d="M144.471 4.58008C143.366 4.58008 142.471 5.47551 142.471 6.58008C142.471 7.68465 143.366 8.58008 144.471 8.58008C145.575 8.58008 146.471 7.68465 146.471 6.58008C146.471 5.47551 145.575 4.58008 144.471 4.58008Z" fill="white"/>
<path d="M81.4707 4.58008C80.3661 4.58008 79.4707 5.47551 79.4707 6.58008C79.4707 7.68465 80.3661 8.58008 81.4707 8.58008C82.5753 8.58008 83.4707 7.68465 83.4707 6.58008C83.4707 5.47551 82.5753 4.58008 81.4707 4.58008Z" fill="white"/>
<path d="M27.4707 4.58008C26.3661 4.58008 25.4707 5.47551 25.4707 6.58008C25.4707 7.68465 26.3661 8.58008 27.4707 8.58008C28.5753 8.58008 29.4707 7.68465 29.4707 6.58008C29.4707 5.47551 28.5753 4.58008 27.4707 4.58008Z" fill="white"/>
<path d="M63.4707 4.58008C62.3661 4.58008 61.4707 5.47551 61.4707 6.58008C61.4707 7.68465 62.3661 8.58008 63.4707 8.58008C64.5753 8.58008 65.4707 7.68465 65.4707 6.58008C65.4707 5.47551 64.5753 4.58008 63.4707 4.58008Z" fill="white"/>
<path d="M180.471 4.58008C179.366 4.58008 178.471 5.47551 178.471 6.58008C178.471 7.68465 179.366 8.58008 180.471 8.58008C181.575 8.58008 182.471 7.68465 182.471 6.58008C182.471 5.47551 181.575 4.58008 180.471 4.58008Z" fill="white"/>
<path d="M117.471 4.58008C116.366 4.58008 115.471 5.47551 115.471 6.58008C115.471 7.68465 116.366 8.58008 117.471 8.58008C118.575 8.58008 119.471 7.68465 119.471 6.58008C119.471 5.47551 118.575 4.58008 117.471 4.58008Z" fill="white"/>
<path d="M189.711 4.58008C188.606 4.58008 187.711 5.47551 187.711 6.58008C187.711 7.68465 188.606 8.58008 189.711 8.58008C190.816 8.58008 191.711 7.68465 191.711 6.58008C191.711 5.47551 190.816 4.58008 189.711 4.58008Z" fill="white"/>
<path d="M126.471 4.58008C125.366 4.58008 124.471 5.47551 124.471 6.58008C124.471 7.68465 125.366 8.58008 126.471 8.58008C127.575 8.58008 128.471 7.68465 128.471 6.58008C128.471 5.47551 127.575 4.58008 126.471 4.58008Z" fill="white"/>
<path d="M0.000701904 6.56992L11.4007 13.1499V7.06992C11.4107 7.03992 11.4307 6.99991 11.4307 6.96991C11.4607 6.83991 11.4707 6.70992 11.4707 6.56992C11.4707 6.39992 11.4407 6.22992 11.4007 6.06992V-9.15527e-05L0.000701904 6.56992Z" fill="white"/>
<path d="M207.241 61.1992C210.131 61.1992 212.471 58.8592 212.471 55.9692C212.471 53.0792 210.131 50.7392 207.241 50.7392C204.351 50.7392 202.011 53.0792 202.011 55.9692C202.011 58.8592 204.351 61.1992 207.241 61.1992Z" fill="white"/>
</svg>
