<svg width="100%" height="100%" viewBox="0 0 213 62" fill="none" xmlns="http://www.w3.org/2000/svg">
<path d="M207.24 18.8994C206.136 18.8994 205.24 18.004 205.24 16.8994C205.24 15.7948 206.136 14.8994 207.24 14.8994C208.345 14.8994 209.24 15.7948 209.24 16.8994C209.24 18.004 208.345 18.8994 207.24 18.8994Z" fill="white"/>
<path d="M207.24 28.3291C206.136 28.3291 205.24 27.4337 205.24 26.3291C205.24 25.2245 206.136 24.3291 207.24 24.3291C208.345 24.3291 209.24 25.2245 209.24 26.3291C209.24 27.4337 208.345 28.3291 207.24 28.3291Z" fill="white"/>
<path d="M207.24 47.1895C206.136 47.1895 205.24 46.294 205.24 45.1895C205.24 44.0849 206.136 43.1895 207.24 43.1895C208.345 43.1895 209.24 44.0849 209.24 45.1895C209.24 46.294 208.345 47.1895 207.24 47.1895Z" fill="white"/>
<path d="M207.24 37.7593C206.136 37.7593 205.24 36.8638 205.24 35.7593C205.24 34.6547 206.136 33.7593 207.24 33.7593C208.345 33.7593 209.24 34.6547 209.24 35.7593C209.24 36.8638 208.345 37.7593 207.24 37.7593Z" fill="white"/>
<path d="M205.39 53.859C205.44 53.739 205.5 53.619 205.57 53.509C205.65 53.399 205.73 53.299 205.82 53.209C206.57 52.459 207.91 52.459 208.65 53.209C208.74 53.299 208.83 53.399 208.9 53.509C208.97 53.619 209.03 53.739 209.08 53.859C209.13 53.979 209.17 54.109 209.2 54.229C209.22 54.359 209.24 54.489 209.24 54.629C209.24 55.159 209.03 55.659 208.65 56.039C208.46 56.229 208.24 56.369 208 56.469C207.76 56.569 207.5 56.619 207.24 56.619C206.7 56.619 206.2 56.419 205.82 56.039C205.73 55.949 205.65 55.839 205.57 55.729C205.5 55.629 205.44 55.509 205.39 55.389C205.34 55.269 205.3 55.149 205.27 55.019C205.25 54.889 205.24 54.759 205.24 54.629C205.24 54.489 205.25 54.359 205.28 54.229C205.3 54.109 205.34 53.979 205.39 53.859Z" fill="white"/>
<path d="M198.471 52.6191C199.571 52.6191 200.471 53.5191 200.471 54.6191C200.471 55.7291 199.571 56.6191 198.471 56.6191C197.361 56.6191 196.461 55.7291 196.461 54.6191C196.461 53.5191 197.361 52.6191 198.471 52.6191Z" fill="white"/>
<path d="M135.471 52.6191C136.571 52.6191 137.471 53.5191 137.471 54.6191C137.471 55.7291 136.571 56.6191 135.471 56.6191C134.361 56.6191 133.461 55.7291 133.461 54.6191C133.461 53.5191 134.361 52.6191 135.471 52.6191Z" fill="white"/>
<path d="M153.471 56.6191C152.366 56.6191 151.471 55.7237 151.471 54.6191C151.471 53.5146 152.366 52.6191 153.471 52.6191C154.575 52.6191 155.471 53.5146 155.471 54.6191C155.471 55.7237 154.575 56.6191 153.471 56.6191Z" fill="white"/>
<path d="M90.4707 56.6191C89.3661 56.6191 88.4707 55.7237 88.4707 54.6191C88.4707 53.5146 89.3661 52.6191 90.4707 52.6191C91.5753 52.6191 92.4707 53.5146 92.4707 54.6191C92.4707 55.7237 91.5753 56.6191 90.4707 56.6191Z" fill="white"/>
<path d="M36.4707 56.6191C35.3661 56.6191 34.4707 55.7237 34.4707 54.6191C34.4707 53.5146 35.3661 52.6191 36.4707 52.6191C37.5753 52.6191 38.4707 53.5146 38.4707 54.6191C38.4707 55.7237 37.5753 56.6191 36.4707 56.6191Z" fill="white"/>
<path d="M72.4707 56.6191C71.3661 56.6191 70.4707 55.7237 70.4707 54.6191C70.4707 53.5146 71.3661 52.6191 72.4707 52.6191C73.5753 52.6191 74.4707 53.5146 74.4707 54.6191C74.4707 55.7237 73.5753 56.6191 72.4707 56.6191Z" fill="white"/>
<path d="M18.4707 56.6191C17.3661 56.6191 16.4707 55.7237 16.4707 54.6191C16.4707 53.5146 17.3661 52.6191 18.4707 52.6191C19.5753 52.6191 20.4707 53.5146 20.4707 54.6191C20.4707 55.7237 19.5753 56.6191 18.4707 56.6191Z" fill="white"/>
<path d="M162.469 56.6191C161.364 56.6191 160.469 55.7237 160.469 54.6191C160.469 53.5146 161.364 52.6191 162.469 52.6191C163.573 52.6191 164.469 53.5146 164.469 54.6191C164.469 55.7237 163.573 56.6191 162.469 56.6191Z" fill="white"/>
<path d="M99.4707 56.6191C98.3661 56.6191 97.4707 55.7237 97.4707 54.6191C97.4707 53.5146 98.3661 52.6191 99.4707 52.6191C100.575 52.6191 101.471 53.5146 101.471 54.6191C101.471 55.7237 100.575 56.6191 99.4707 56.6191Z" fill="white"/>
<path d="M45.4707 56.6191C44.3661 56.6191 43.4707 55.7237 43.4707 54.6191C43.4707 53.5146 44.3661 52.6191 45.4707 52.6191C46.5753 52.6191 47.4707 53.5146 47.4707 54.6191C47.4707 55.7237 46.5753 56.6191 45.4707 56.6191Z" fill="white"/>
<path d="M171.471 56.6191C170.366 56.6191 169.471 55.7237 169.471 54.6191C169.471 53.5146 170.366 52.6191 171.471 52.6191C172.575 52.6191 173.471 53.5146 173.471 54.6191C173.471 55.7237 172.575 56.6191 171.471 56.6191Z" fill="white"/>
<path d="M108.471 56.6191C107.366 56.6191 106.471 55.7237 106.471 54.6191C106.471 53.5146 107.366 52.6191 108.471 52.6191C109.575 52.6191 110.471 53.5146 110.471 54.6191C110.471 55.7237 109.575 56.6191 108.471 56.6191Z" fill="white"/>
<path d="M54.4707 56.6191C53.3661 56.6191 52.4707 55.7237 52.4707 54.6191C52.4707 53.5146 53.3661 52.6191 54.4707 52.6191C55.5753 52.6191 56.4707 53.5146 56.4707 54.6191C56.4707 55.7237 55.5753 56.6191 54.4707 56.6191Z" fill="white"/>
<path d="M144.471 56.6191C143.366 56.6191 142.471 55.7237 142.471 54.6191C142.471 53.5146 143.366 52.6191 144.471 52.6191C145.575 52.6191 146.471 53.5146 146.471 54.6191C146.471 55.7237 145.575 56.6191 144.471 56.6191Z" fill="white"/>
<path d="M81.4707 56.6191C80.3661 56.6191 79.4707 55.7237 79.4707 54.6191C79.4707 53.5146 80.3661 52.6191 81.4707 52.6191C82.5753 52.6191 83.4707 53.5146 83.4707 54.6191C83.4707 55.7237 82.5753 56.6191 81.4707 56.6191Z" fill="white"/>
<path d="M27.4707 56.6191C26.3661 56.6191 25.4707 55.7237 25.4707 54.6191C25.4707 53.5146 26.3661 52.6191 27.4707 52.6191C28.5753 52.6191 29.4707 53.5146 29.4707 54.6191C29.4707 55.7237 28.5753 56.6191 27.4707 56.6191Z" fill="white"/>
<path d="M180.471 56.6191C179.366 56.6191 178.471 55.7237 178.471 54.6191C178.471 53.5146 179.366 52.6191 180.471 52.6191C181.575 52.6191 182.471 53.5146 182.471 54.6191C182.471 55.7237 181.575 56.6191 180.471 56.6191Z" fill="white"/>
<path d="M117.471 56.6191C116.366 56.6191 115.471 55.7237 115.471 54.6191C115.471 53.5146 116.366 52.6191 117.471 52.6191C118.575 52.6191 119.471 53.5146 119.471 54.6191C119.471 55.7237 118.575 56.6191 117.471 56.6191Z" fill="white"/>
<path d="M63.4707 56.6191C62.3661 56.6191 61.4707 55.7237 61.4707 54.6191C61.4707 53.5146 62.3661 52.6191 63.4707 52.6191C64.5753 52.6191 65.4707 53.5146 65.4707 54.6191C65.4707 55.7237 64.5753 56.6191 63.4707 56.6191Z" fill="white"/>
<path d="M189.711 56.6191C188.606 56.6191 187.711 55.7237 187.711 54.6191C187.711 53.5146 188.606 52.6191 189.711 52.6191C190.816 52.6191 191.711 53.5146 191.711 54.6191C191.711 55.7237 190.816 56.6191 189.711 56.6191Z" fill="white"/>
<path d="M126.471 56.6191C125.366 56.6191 124.471 55.7237 124.471 54.6191C124.471 53.5146 125.366 52.6191 126.471 52.6191C127.575 52.6191 128.471 53.5146 128.471 54.6191C128.471 55.7237 127.575 56.6191 126.471 56.6191Z" fill="white"/>
<path d="M0.000701904 54.6293L11.4007 48.0493V54.1293C11.4107 54.1593 11.4307 54.1993 11.4307 54.2293C11.4607 54.3593 11.4707 54.4893 11.4707 54.6293C11.4707 54.7993 11.4407 54.9693 11.4007 55.1293V61.1993L0.000701904 54.6293Z" fill="white"/>
<path d="M207.241 0C210.131 0 212.471 2.34001 212.471 5.23001C212.471 8.12001 210.131 10.46 207.241 10.46C204.351 10.46 202.011 8.12001 202.011 5.23001C202.011 2.34001 204.351 0 207.241 0Z" fill="white"/>
</svg>
