<svg width="100%" height="100%" viewBox="0 0 213 62" fill="none" xmlns="http://www.w3.org/2000/svg">
<path d="M7.08046 16.4701C7.03046 16.3501 6.97047 16.2301 6.90047 16.1201C6.82047 16.0101 6.74047 15.9101 6.65047 15.8201C5.90047 15.0701 4.56047 15.0701 3.82047 15.8201C3.73047 15.9101 3.64047 16.0101 3.57047 16.1201C3.50047 16.2301 3.44046 16.3501 3.39046 16.4701C3.34046 16.5901 3.30046 16.7101 3.27046 16.8401C3.25046 16.9701 3.23047 17.1001 3.23047 17.2301C3.23047 17.7701 3.44047 18.2701 3.82047 18.6501C4.01047 18.8301 4.23046 18.9801 4.47046 19.0801C4.71046 19.1801 4.97047 19.2301 5.23047 19.2301C5.77047 19.2301 6.27047 19.0201 6.65047 18.6501C6.74047 18.5501 6.82047 18.4501 6.90047 18.3401C6.97047 18.2301 7.03046 18.1201 7.08046 18.0001C7.13046 17.8801 7.17047 17.7501 7.20047 17.6301C7.22047 17.5001 7.23047 17.3701 7.23047 17.2301C7.23047 17.1001 7.22046 16.9701 7.19046 16.8401C7.17046 16.7101 7.13046 16.5901 7.08046 16.4701Z" fill="white"/>
<path d="M5.23047 28.6602C6.33504 28.6602 7.23047 27.7647 7.23047 26.6602C7.23047 25.5556 6.33504 24.6602 5.23047 24.6602C4.1259 24.6602 3.23047 25.5556 3.23047 26.6602C3.23047 27.7647 4.1259 28.6602 5.23047 28.6602Z" fill="white"/>
<path d="M5.23047 38.0898C6.33504 38.0898 7.23047 37.1944 7.23047 36.0898C7.23047 34.9853 6.33504 34.0898 5.23047 34.0898C4.1259 34.0898 3.23047 34.9853 3.23047 36.0898C3.23047 37.1944 4.1259 38.0898 5.23047 38.0898Z" fill="white"/>
<path d="M5.23047 47.9402C6.33504 47.9402 7.23047 47.0448 7.23047 45.9402C7.23047 44.8356 6.33504 43.9402 5.23047 43.9402C4.1259 43.9402 3.23047 44.8356 3.23047 45.9402C3.23047 47.0448 4.1259 47.9402 5.23047 47.9402Z" fill="white"/>
<path d="M7.08046 54.61C7.03046 54.49 6.97047 54.3699 6.90047 54.2599C6.82047 54.1499 6.74047 54.05 6.65047 53.96C5.90047 53.21 4.56047 53.21 3.82047 53.96C3.73047 54.05 3.64047 54.1499 3.57047 54.2599C3.50047 54.3699 3.44046 54.49 3.39046 54.61C3.34046 54.73 3.30046 54.8599 3.27046 54.9799C3.25046 55.1099 3.23047 55.2399 3.23047 55.3799C3.23047 55.9099 3.44047 56.4099 3.82047 56.7899C4.01047 56.9799 4.23046 57.12 4.47046 57.22C4.71046 57.32 4.97047 57.37 5.23047 57.37C5.77047 57.37 6.27047 57.1699 6.65047 56.7899C6.74047 56.6999 6.82047 56.5899 6.90047 56.4799C6.97047 56.38 7.03046 56.26 7.08046 56.14C7.13046 56.02 7.17047 55.9 7.20047 55.77C7.22047 55.64 7.23047 55.5099 7.23047 55.3799C7.23047 55.2399 7.22046 55.1099 7.19046 54.9799C7.17046 54.8599 7.13046 54.73 7.08046 54.61Z" fill="white"/>
<path d="M14 53.3701C12.9 53.3701 12 54.2701 12 55.3701C12 56.4801 12.9 57.3701 14 57.3701C15.11 57.3701 16.01 56.4801 16.01 55.3701C16.01 54.2701 15.11 53.3701 14 53.3701Z" fill="white"/>
<path d="M77 53.3701C75.9 53.3701 75 54.2701 75 55.3701C75 56.4801 75.9 57.3701 77 57.3701C78.11 57.3701 79.01 56.4801 79.01 55.3701C79.01 54.2701 78.11 53.3701 77 53.3701Z" fill="white"/>
<path d="M59 57.3701C60.1046 57.3701 61 56.4747 61 55.3701C61 54.2655 60.1046 53.3701 59 53.3701C57.8954 53.3701 57 54.2655 57 55.3701C57 56.4747 57.8954 57.3701 59 57.3701Z" fill="white"/>
<path d="M122 57.3701C123.105 57.3701 124 56.4747 124 55.3701C124 54.2655 123.105 53.3701 122 53.3701C120.895 53.3701 120 54.2655 120 55.3701C120 56.4747 120.895 57.3701 122 57.3701Z" fill="white"/>
<path d="M176 57.3701C177.105 57.3701 178 56.4747 178 55.3701C178 54.2655 177.105 53.3701 176 53.3701C174.895 53.3701 174 54.2655 174 55.3701C174 56.4747 174.895 57.3701 176 57.3701Z" fill="white"/>
<path d="M140 57.3701C141.105 57.3701 142 56.4747 142 55.3701C142 54.2655 141.105 53.3701 140 53.3701C138.895 53.3701 138 54.2655 138 55.3701C138 56.4747 138.895 57.3701 140 57.3701Z" fill="white"/>
<path d="M194 57.3701C195.105 57.3701 196 56.4747 196 55.3701C196 54.2655 195.105 53.3701 194 53.3701C192.895 53.3701 192 54.2655 192 55.3701C192 56.4747 192.895 57.3701 194 57.3701Z" fill="white"/>
<path d="M50 57.3701C51.1046 57.3701 52 56.4747 52 55.3701C52 54.2655 51.1046 53.3701 50 53.3701C48.8954 53.3701 48 54.2655 48 55.3701C48 56.4747 48.8954 57.3701 50 57.3701Z" fill="white"/>
<path d="M113 57.3701C114.105 57.3701 115 56.4747 115 55.3701C115 54.2655 114.105 53.3701 113 53.3701C111.895 53.3701 111 54.2655 111 55.3701C111 56.4747 111.895 57.3701 113 57.3701Z" fill="white"/>
<path d="M167 57.3701C168.105 57.3701 169 56.4747 169 55.3701C169 54.2655 168.105 53.3701 167 53.3701C165.895 53.3701 165 54.2655 165 55.3701C165 56.4747 165.895 57.3701 167 57.3701Z" fill="white"/>
<path d="M41 57.3701C42.1046 57.3701 43 56.4747 43 55.3701C43 54.2655 42.1046 53.3701 41 53.3701C39.8954 53.3701 39 54.2655 39 55.3701C39 56.4747 39.8954 57.3701 41 57.3701Z" fill="white"/>
<path d="M104 57.3701C105.105 57.3701 106 56.4747 106 55.3701C106 54.2655 105.105 53.3701 104 53.3701C102.895 53.3701 102 54.2655 102 55.3701C102 56.4747 102.895 57.3701 104 57.3701Z" fill="white"/>
<path d="M158 57.3701C159.105 57.3701 160 56.4747 160 55.3701C160 54.2655 159.105 53.3701 158 53.3701C156.895 53.3701 156 54.2655 156 55.3701C156 56.4747 156.895 57.3701 158 57.3701Z" fill="white"/>
<path d="M68 57.3701C69.1046 57.3701 70 56.4747 70 55.3701C70 54.2655 69.1046 53.3701 68 53.3701C66.8954 53.3701 66 54.2655 66 55.3701C66 56.4747 66.8954 57.3701 68 57.3701Z" fill="white"/>
<path d="M131 57.3701C132.105 57.3701 133 56.4747 133 55.3701C133 54.2655 132.105 53.3701 131 53.3701C129.895 53.3701 129 54.2655 129 55.3701C129 56.4747 129.895 57.3701 131 57.3701Z" fill="white"/>
<path d="M185 57.3701C186.105 57.3701 187 56.4747 187 55.3701C187 54.2655 186.105 53.3701 185 53.3701C183.895 53.3701 183 54.2655 183 55.3701C183 56.4747 183.895 57.3701 185 57.3701Z" fill="white"/>
<path d="M32 57.3701C33.1046 57.3701 34 56.4747 34 55.3701C34 54.2655 33.1046 53.3701 32 53.3701C30.8954 53.3701 30 54.2655 30 55.3701C30 56.4747 30.8954 57.3701 32 57.3701Z" fill="white"/>
<path d="M95 57.3701C96.1046 57.3701 97 56.4747 97 55.3701C97 54.2655 96.1046 53.3701 95 53.3701C93.8954 53.3701 93 54.2655 93 55.3701C93 56.4747 93.8954 57.3701 95 57.3701Z" fill="white"/>
<path d="M149 57.3701C150.105 57.3701 151 56.4747 151 55.3701C151 54.2655 150.105 53.3701 149 53.3701C147.895 53.3701 147 54.2655 147 55.3701C147 56.4747 147.895 57.3701 149 57.3701Z" fill="white"/>
<path d="M22.7598 57.3701C23.8643 57.3701 24.7598 56.4747 24.7598 55.3701C24.7598 54.2655 23.8643 53.3701 22.7598 53.3701C21.6552 53.3701 20.7598 54.2655 20.7598 55.3701C20.7598 56.4747 21.6552 57.3701 22.7598 57.3701Z" fill="white"/>
<path d="M86 57.3701C87.1046 57.3701 88 56.4747 88 55.3701C88 54.2655 87.1046 53.3701 86 53.3701C84.8954 53.3701 84 54.2655 84 55.3701C84 56.4747 84.8954 57.3701 86 57.3701Z" fill="white"/>
<path d="M212.47 55.38L201.07 48.8V54.88C201.06 54.91 201.04 54.95 201.04 54.98C201.01 55.11 201 55.24 201 55.38C201 55.55 201.03 55.72 201.07 55.88V61.95L212.47 55.38Z" fill="white"/>
<path d="M5.23001 0C2.34001 0 0 2.34001 0 5.23001C0 8.12001 2.34001 10.46 5.23001 10.46C8.12001 10.46 10.46 8.12001 10.46 5.23001C10.46 2.34001 8.12001 0 5.23001 0Z" fill="white"/>
</svg>
