<svg width="100%" height="100%" viewBox="0 0 11 54" fill="none" xmlns="http://www.w3.org/2000/svg">
<path d="M5.23001 0C2.34001 0 0 2.34001 0 5.23001C0 8.12001 2.34001 10.46 5.23001 10.46C8.12001 10.46 10.46 8.12001 10.46 5.23001C10.46 2.34001 8.12001 0 5.23001 0Z" fill="white"/>
<path d="M5 17.7C3.89543 17.7 3 16.8045 3 15.7C3 14.5954 3.89543 13.7 5 13.7C6.10457 13.7 7 14.5954 7 15.7C7 16.8045 6.10457 17.7 5 17.7Z" fill="white"/>
<path d="M5 26.7C3.89543 26.7 3 25.8045 3 24.7C3 23.5954 3.89543 22.7 5 22.7C6.10457 22.7 7 23.5954 7 24.7C7 25.8045 6.10457 26.7 5 26.7Z" fill="white"/>
<path d="M5 44.7C3.89543 44.7 3 43.8045 3 42.7C3 41.5954 3.89543 40.7 5 40.7C6.10457 40.7 7 41.5954 7 42.7C7 43.8045 6.10457 44.7 5 44.7Z" fill="white"/>
<path d="M5 35.7C3.89543 35.7 3 34.8045 3 33.7C3 32.5954 3.89543 31.7 5 31.7C6.10457 31.7 7 32.5954 7 33.7C7 34.8045 6.10457 35.7 5 35.7Z" fill="white"/>
<path d="M3.15001 50.9124C3.20001 50.7924 3.26 50.6724 3.33 50.5624C3.41 50.4524 3.49 50.3525 3.58 50.2625C4.33 49.5125 5.67 49.5125 6.41 50.2625C6.5 50.3525 6.59 50.4524 6.66 50.5624C6.73 50.6724 6.79001 50.7924 6.84001 50.9124C6.89001 51.0324 6.93001 51.1624 6.96001 51.2824C6.98001 51.4124 7 51.5424 7 51.6824C7 52.2124 6.79 52.7124 6.41 53.0924C6.22 53.2824 6.00001 53.4225 5.76001 53.5225C5.52001 53.6225 5.26 53.6725 5 53.6725C4.46 53.6725 3.96 53.4724 3.58 53.0924C3.49 53.0024 3.41 52.8924 3.33 52.7824C3.26 52.6824 3.20001 52.5624 3.15001 52.4424C3.10001 52.3224 3.06 52.2024 3.03 52.0724C3.01 51.9424 3 51.8124 3 51.6824C3 51.5424 3.01001 51.4124 3.04001 51.2824C3.06001 51.1624 3.10001 51.0324 3.15001 50.9124Z" fill="white"/>
</svg>
