<svg width="100%" height="100%" viewBox="0 0 11 57" fill="none" xmlns="http://www.w3.org/2000/svg">
<path d="M7.08046 40.4799C7.03046 40.5999 6.97047 40.7199 6.90047 40.8299C6.82047 40.9399 6.74047 41.0399 6.65047 41.1299C5.90047 41.8799 4.56047 41.8799 3.82047 41.1299C3.73047 41.0399 3.64047 40.9399 3.57047 40.8299C3.50047 40.7199 3.44046 40.5999 3.39046 40.4799C3.34046 40.3599 3.30046 40.2399 3.27046 40.1099C3.25046 39.9799 3.23047 39.8499 3.23047 39.7199C3.23047 39.1799 3.44047 38.6799 3.82047 38.2999C4.01047 38.1199 4.23046 37.9699 4.47046 37.8699C4.71046 37.7699 4.97047 37.7199 5.23047 37.7199C5.77047 37.7199 6.27047 37.9299 6.65047 38.2999C6.74047 38.3999 6.82047 38.4999 6.90047 38.6099C6.97047 38.7199 7.03046 38.8299 7.08046 38.9499C7.13046 39.0699 7.17047 39.1999 7.20047 39.3199C7.22047 39.4499 7.23047 39.5799 7.23047 39.7199C7.23047 39.8499 7.22046 39.9799 7.19046 40.1099C7.17046 40.2399 7.13046 40.3599 7.08046 40.4799Z" fill="white"/>
<path d="M5.23047 28.2896C6.33504 28.2896 7.23047 29.185 7.23047 30.2896C7.23047 31.3941 6.33504 32.2896 5.23047 32.2896C4.1259 32.2896 3.23047 31.3941 3.23047 30.2896C3.23047 29.185 4.1259 28.2896 5.23047 28.2896Z" fill="white"/>
<path d="M5.23047 0C6.33504 0 7.23047 0.895431 7.23047 2C7.23047 3.10457 6.33504 4 5.23047 4C4.1259 4 3.23047 3.10457 3.23047 2C3.23047 0.895431 4.1259 0 5.23047 0Z" fill="white"/>
<path d="M5.23047 9.42969C6.33504 9.42969 7.23047 10.3251 7.23047 11.4297C7.23047 12.5343 6.33504 13.4297 5.23047 13.4297C4.1259 13.4297 3.23047 12.5343 3.23047 11.4297C3.23047 10.3251 4.1259 9.42969 5.23047 9.42969Z" fill="white"/>
<path d="M5.23047 18.8599C6.33504 18.8599 7.23047 19.7553 7.23047 20.8599C7.23047 21.9644 6.33504 22.8599 5.23047 22.8599C4.1259 22.8599 3.23047 21.9644 3.23047 20.8599C3.23047 19.7553 4.1259 18.8599 5.23047 18.8599Z" fill="white"/>
<path d="M5.23001 56.9497C2.34001 56.9497 0 54.6097 0 51.7197C0 48.8297 2.34001 46.4897 5.23001 46.4897C8.12001 46.4897 10.46 48.8297 10.46 51.7197C10.46 54.6097 8.12001 56.9497 5.23001 56.9497Z" fill="white"/>
</svg>
