<svg width="100%" height="100%" viewBox="0 0 14 111" fill="none" xmlns="http://www.w3.org/2000/svg">
<path d="M7.42001 110.47L14 99.07L7.92001 99.07C7.89001 99.06 7.85001 99.04 7.82001 99.04C7.69001 99.01 7.56001 99 7.42001 99C7.25001 99 7.08001 99.03 6.92001 99.07L0.850006 99.07L7.42001 110.47Z" fill="white"/>
<path d="M6.15001 19.2125C6.20001 19.0925 6.26 18.9725 6.33 18.8625C6.41 18.7525 6.49 18.6525 6.58 18.5625C7.33 17.8125 8.67 17.8125 9.41 18.5625C9.5 18.6525 9.59 18.7525 9.66 18.8625C9.73 18.9725 9.79001 19.0925 9.84001 19.2125C9.89001 19.3325 9.93001 19.4525 9.96001 19.5825C9.98001 19.7125 10 19.8425 10 19.9725C10 20.5125 9.79 21.0125 9.41 21.3925C9.22 21.5725 9.00001 21.7225 8.76001 21.8225C8.52001 21.9225 8.26 21.9725 8 21.9725C7.46 21.9725 6.96 21.7625 6.58 21.3925C6.49 21.2925 6.41 21.1925 6.33 21.0825C6.26 20.9725 6.20001 20.8625 6.15001 20.7425C6.10001 20.6225 6.06 20.4925 6.03 20.3725C6.01 20.2425 6 20.1125 6 19.9725C6 19.8425 6.01001 19.7125 6.04001 19.5825C6.06001 19.4525 6.10001 19.3325 6.15001 19.2125Z" fill="white"/>
<path d="M8 31C6.89543 31 6 30.1046 6 29C6 27.8954 6.89543 27 8 27C9.10457 27 10 27.8954 10 29C10 30.1046 9.10457 31 8 31Z" fill="white"/>
<path d="M8 58C6.89543 58 6 57.1046 6 56C6 54.8954 6.89543 54 8 54C9.10457 54 10 54.8954 10 56C10 57.1046 9.10457 58 8 58Z" fill="white"/>
<path d="M8 13C6.89543 13 6 12.1046 6 11C6 9.89543 6.89543 9 8 9C9.10457 9 10 9.89543 10 11C10 12.1046 9.10457 13 8 13Z" fill="white"/>
<path d="M8 49C6.89543 49 6 48.1046 6 47C6 45.8954 6.89543 45 8 45C9.10457 45 10 45.8954 10 47C10 48.1046 9.10457 49 8 49Z" fill="white"/>
<path d="M8 4C6.89543 4 6 3.10457 6 2C6 0.89543 6.89543 0 8 0C9.10457 0 10 0.89543 10 2C10 3.10457 9.10457 4 8 4Z" fill="white"/>
<path d="M8 40C6.89543 40 6 39.1046 6 38C6 36.8954 6.89543 36 8 36C9.10457 36 10 36.8954 10 38C10 39.1046 9.10457 40 8 40Z" fill="white"/>
<path d="M8 67C6.89543 67 6 66.1046 6 65C6 63.8954 6.89543 63 8 63C9.10457 63 10 63.8954 10 65C10 66.1046 9.10457 67 8 67Z" fill="white"/>
<path d="M8 76C6.89543 76 6 75.1046 6 74C6 72.8954 6.89543 72 8 72C9.10457 72 10 72.8954 10 74C10 75.1046 9.10457 76 8 76Z" fill="white"/>
<path d="M8 85C6.89543 85 6 84.1046 6 83C6 81.8954 6.89543 81 8 81C9.10457 81 10 81.8954 10 83C10 84.1046 9.10457 85 8 85Z" fill="white"/>
<path d="M8 94C6.89543 94 6 93.1046 6 92C6 90.8954 6.89543 90 8 90C9.10457 90 10 90.8954 10 92C10 93.1046 9.10457 94 8 94Z" fill="white"/>
</svg>
