<svg width="100%" height="100%" viewBox="0 0 213 62" fill="none" xmlns="http://www.w3.org/2000/svg">
<path d="M7.08046 45.4799C7.03046 45.5999 6.97047 45.7199 6.90047 45.8299C6.82047 45.9399 6.74047 46.0399 6.65047 46.1299C5.90047 46.8799 4.56047 46.8799 3.82047 46.1299C3.73047 46.0399 3.64047 45.9399 3.57047 45.8299C3.50047 45.7199 3.44046 45.5999 3.39046 45.4799C3.34046 45.3599 3.30046 45.2399 3.27046 45.1099C3.25046 44.9799 3.23047 44.8499 3.23047 44.7199C3.23047 44.1799 3.44047 43.6799 3.82047 43.2999C4.01047 43.1199 4.23046 42.9699 4.47046 42.8699C4.71046 42.7699 4.97047 42.7199 5.23047 42.7199C5.77047 42.7199 6.27047 42.9299 6.65047 43.2999C6.74047 43.3999 6.82047 43.4999 6.90047 43.6099C6.97047 43.7199 7.03046 43.8299 7.08046 43.9499C7.13046 44.0699 7.17047 44.1999 7.20047 44.3199C7.22047 44.4499 7.23047 44.5799 7.23047 44.7199C7.23047 44.8499 7.22046 44.9799 7.19046 45.1099C7.17046 45.2399 7.13046 45.3599 7.08046 45.4799Z" fill="white"/>
<path d="M5.23047 14.01C6.33504 14.01 7.23047 14.9054 7.23047 16.01C7.23047 17.1146 6.33504 18.01 5.23047 18.01C4.1259 18.01 3.23047 17.1146 3.23047 16.01C3.23047 14.9054 4.1259 14.01 5.23047 14.01Z" fill="white"/>
<path d="M5.23047 23.4399C6.33504 23.4399 7.23047 24.3354 7.23047 25.4399C7.23047 26.5445 6.33504 27.4399 5.23047 27.4399C4.1259 27.4399 3.23047 26.5445 3.23047 25.4399C3.23047 24.3354 4.1259 23.4399 5.23047 23.4399Z" fill="white"/>
<path d="M7.08046 7.34C7.03046 7.46 6.97047 7.58 6.90047 7.69C6.82047 7.8 6.74047 7.89999 6.65047 7.98999C5.90047 8.73999 4.56047 8.73999 3.82047 7.98999C3.73047 7.89999 3.64047 7.8 3.57047 7.69C3.50047 7.58 3.44046 7.46 3.39046 7.34C3.34046 7.22 3.30046 7.09 3.27046 6.97C3.25046 6.84 3.23047 6.71001 3.23047 6.57001C3.23047 6.04001 3.44047 5.54 3.82047 5.16C4.01047 4.97 4.23046 4.82998 4.47046 4.72998C4.71046 4.62998 4.97047 4.57999 5.23047 4.57999C5.77047 4.57999 6.27047 4.78 6.65047 5.16C6.74047 5.25 6.82047 5.36 6.90047 5.47C6.97047 5.57 7.03046 5.69 7.08046 5.81C7.13046 5.93 7.17047 6.04999 7.20047 6.17999C7.22047 6.30999 7.23047 6.44001 7.23047 6.57001C7.23047 6.71001 7.22046 6.84 7.19046 6.97C7.17046 7.09 7.13046 7.22 7.08046 7.34Z" fill="white"/>
<path d="M14 8.58008C12.9 8.58008 12 7.68008 12 6.58008C12 5.47008 12.9 4.58008 14 4.58008C15.11 4.58008 16.01 5.47008 16.01 6.58008C16.01 7.68008 15.11 8.58008 14 8.58008Z" fill="white"/>
<path d="M77 8.58008C75.9 8.58008 75 7.68008 75 6.58008C75 5.47008 75.9 4.58008 77 4.58008C78.11 4.58008 79.01 5.47008 79.01 6.58008C79.01 7.68008 78.11 8.58008 77 8.58008Z" fill="white"/>
<path d="M59 4.58008C60.1046 4.58008 61 5.47551 61 6.58008C61 7.68465 60.1046 8.58008 59 8.58008C57.8954 8.58008 57 7.68465 57 6.58008C57 5.47551 57.8954 4.58008 59 4.58008Z" fill="white"/>
<path d="M122 4.58008C123.105 4.58008 124 5.47551 124 6.58008C124 7.68465 123.105 8.58008 122 8.58008C120.895 8.58008 120 7.68465 120 6.58008C120 5.47551 120.895 4.58008 122 4.58008Z" fill="white"/>
<path d="M176 4.58008C177.105 4.58008 178 5.47551 178 6.58008C178 7.68465 177.105 8.58008 176 8.58008C174.895 8.58008 174 7.68465 174 6.58008C174 5.47551 174.895 4.58008 176 4.58008Z" fill="white"/>
<path d="M140 4.58008C141.105 4.58008 142 5.47551 142 6.58008C142 7.68465 141.105 8.58008 140 8.58008C138.895 8.58008 138 7.68465 138 6.58008C138 5.47551 138.895 4.58008 140 4.58008Z" fill="white"/>
<path d="M194 4.58008C195.105 4.58008 196 5.47551 196 6.58008C196 7.68465 195.105 8.58008 194 8.58008C192.895 8.58008 192 7.68465 192 6.58008C192 5.47551 192.895 4.58008 194 4.58008Z" fill="white"/>
<path d="M50 4.58008C51.1046 4.58008 52 5.47551 52 6.58008C52 7.68465 51.1046 8.58008 50 8.58008C48.8954 8.58008 48 7.68465 48 6.58008C48 5.47551 48.8954 4.58008 50 4.58008Z" fill="white"/>
<path d="M113 4.58008C114.105 4.58008 115 5.47551 115 6.58008C115 7.68465 114.105 8.58008 113 8.58008C111.895 8.58008 111 7.68465 111 6.58008C111 5.47551 111.895 4.58008 113 4.58008Z" fill="white"/>
<path d="M167 4.58008C168.105 4.58008 169 5.47551 169 6.58008C169 7.68465 168.105 8.58008 167 8.58008C165.895 8.58008 165 7.68465 165 6.58008C165 5.47551 165.895 4.58008 167 4.58008Z" fill="white"/>
<path d="M41 4.58008C42.1046 4.58008 43 5.47551 43 6.58008C43 7.68465 42.1046 8.58008 41 8.58008C39.8954 8.58008 39 7.68465 39 6.58008C39 5.47551 39.8954 4.58008 41 4.58008Z" fill="white"/>
<path d="M104 4.58008C105.105 4.58008 106 5.47551 106 6.58008C106 7.68465 105.105 8.58008 104 8.58008C102.895 8.58008 102 7.68465 102 6.58008C102 5.47551 102.895 4.58008 104 4.58008Z" fill="white"/>
<path d="M158 4.58008C159.105 4.58008 160 5.47551 160 6.58008C160 7.68465 159.105 8.58008 158 8.58008C156.895 8.58008 156 7.68465 156 6.58008C156 5.47551 156.895 4.58008 158 4.58008Z" fill="white"/>
<path d="M68 4.58008C69.1046 4.58008 70 5.47551 70 6.58008C70 7.68465 69.1046 8.58008 68 8.58008C66.8954 8.58008 66 7.68465 66 6.58008C66 5.47551 66.8954 4.58008 68 4.58008Z" fill="white"/>
<path d="M131 4.58008C132.105 4.58008 133 5.47551 133 6.58008C133 7.68465 132.105 8.58008 131 8.58008C129.895 8.58008 129 7.68465 129 6.58008C129 5.47551 129.895 4.58008 131 4.58008Z" fill="white"/>
<path d="M185 4.58008C186.105 4.58008 187 5.47551 187 6.58008C187 7.68465 186.105 8.58008 185 8.58008C183.895 8.58008 183 7.68465 183 6.58008C183 5.47551 183.895 4.58008 185 4.58008Z" fill="white"/>
<path d="M149 4.58008C150.105 4.58008 151 5.47551 151 6.58008C151 7.68465 150.105 8.58008 149 8.58008C147.895 8.58008 147 7.68465 147 6.58008C147 5.47551 147.895 4.58008 149 4.58008Z" fill="white"/>
<path d="M32 4.58008C33.1046 4.58008 34 5.47551 34 6.58008C34 7.68465 33.1046 8.58008 32 8.58008C30.8954 8.58008 30 7.68465 30 6.58008C30 5.47551 30.8954 4.58008 32 4.58008Z" fill="white"/>
<path d="M95 4.58008C96.1046 4.58008 97 5.47551 97 6.58008C97 7.68465 96.1046 8.58008 95 8.58008C93.8954 8.58008 93 7.68465 93 6.58008C93 5.47551 93.8954 4.58008 95 4.58008Z" fill="white"/>
<path d="M22.7598 4.58008C23.8643 4.58008 24.7598 5.47551 24.7598 6.58008C24.7598 7.68465 23.8643 8.58008 22.7598 8.58008C21.6552 8.58008 20.7598 7.68465 20.7598 6.58008C20.7598 5.47551 21.6552 4.58008 22.7598 4.58008Z" fill="white"/>
<path d="M86 4.58008C87.1046 4.58008 88 5.47551 88 6.58008C88 7.68465 87.1046 8.58008 86 8.58008C84.8954 8.58008 84 7.68465 84 6.58008C84 5.47551 84.8954 4.58008 86 4.58008Z" fill="white"/>
<path d="M212.47 6.56992L201.07 13.1499V7.06992C201.06 7.03992 201.04 6.99991 201.04 6.96991C201.01 6.83991 201 6.70992 201 6.56992C201 6.39992 201.03 6.22992 201.07 6.06992V-9.15527e-05L212.47 6.56992Z" fill="white"/>
<path d="M5.23001 61.95C2.34001 61.95 0 59.6099 0 56.7199C0 53.8299 2.34001 51.49 5.23001 51.49C8.12001 51.49 10.46 53.8299 10.46 56.7199C10.46 59.6099 8.12001 61.95 5.23001 61.95Z" fill="white"/>
<path d="M5.23047 33.2898C6.33504 33.2898 7.23047 34.1852 7.23047 35.2898C7.23047 36.3944 6.33504 37.2898 5.23047 37.2898C4.1259 37.2898 3.23047 36.3944 3.23047 35.2898C3.23047 34.1852 4.1259 33.2898 5.23047 33.2898Z" fill="white"/>
</svg>
