<svg width="56" height="49" viewBox="0 0 56 49" fill="none" xmlns="http://www.w3.org/2000/svg">
<path fill-rule="evenodd" clip-rule="evenodd" d="M13.8962 0L41.6886 1.20277e-06L55.5847 24.0689L41.6886 48.1378L13.8962 48.1378L0 24.0689L13.8962 0ZM15.6886 3.10448L3.58474 24.0689L15.6886 45.0333H39.8962L52 24.0689L39.8962 3.10448L15.6886 3.10448Z" fill="#001529"/>
<path d="M11 24H15" stroke="#001529" stroke-width="3" stroke-linecap="square"/>
<path d="M44 24H40" stroke="#001529" stroke-width="3" stroke-linecap="square"/>
<path d="M15.7188 11.7142L18.7189 14.7144" stroke="#001529" stroke-width="3" stroke-linecap="square"/>
<path d="M39.4629 11.7142L36.4627 14.7144" stroke="#001529" stroke-width="3" stroke-linecap="square"/>
<path d="M28 7L28 11" stroke="#001529" stroke-width="3" stroke-linecap="square"/>
<mask id="path-7-inside-1_862_1834" fill="white">
<path fill-rule="evenodd" clip-rule="evenodd" d="M32.5824 30.8807C34.9266 29.2653 36.4631 26.5621 36.4631 23.5C36.4631 18.5531 32.4529 14.5428 27.506 14.5428C22.5591 14.5428 18.5488 18.5531 18.5488 23.5C18.5488 26.5621 20.0854 29.2653 22.4295 30.8807C22.3583 31.1369 22.3203 31.4068 22.3203 31.6857V33.2286C22.3203 34.8854 23.6634 36.2286 25.3203 36.2286H29.6917C31.3485 36.2286 32.6917 34.8854 32.6917 33.2286V31.6857C32.6917 31.4068 32.6536 31.1369 32.5824 30.8807Z"/>
</mask>
<path d="M32.5824 30.8807L30.8801 28.4104C29.8265 29.1365 29.3494 30.451 29.692 31.6839L32.5824 30.8807ZM22.4295 30.8807L25.32 31.6839C25.6626 30.451 25.1854 29.1365 24.1318 28.4104L22.4295 30.8807ZM33.4631 23.5C33.4631 25.5339 32.4466 27.331 30.8801 28.4104L34.2847 33.3509C37.4066 31.1996 39.4631 27.5903 39.4631 23.5H33.4631ZM27.506 17.5428C30.796 17.5428 33.4631 20.21 33.4631 23.5H39.4631C39.4631 16.8962 34.1097 11.5428 27.506 11.5428V17.5428ZM21.5488 23.5C21.5488 20.21 24.2159 17.5428 27.506 17.5428V11.5428C20.9022 11.5428 15.5488 16.8962 15.5488 23.5H21.5488ZM24.1318 28.4104C22.5654 27.331 21.5488 25.5339 21.5488 23.5H15.5488C15.5488 27.5903 17.6054 31.1996 20.7272 33.3509L24.1318 28.4104ZM25.3203 31.6857C25.3203 31.6829 25.3204 31.6817 25.3204 31.6819C25.3204 31.6821 25.3203 31.6828 25.32 31.6839L19.539 30.0775C19.3958 30.5927 19.3203 31.1328 19.3203 31.6857H25.3203ZM25.3203 33.2286V31.6857H19.3203V33.2286H25.3203ZM25.3203 33.2286H19.3203C19.3203 36.5423 22.0065 39.2286 25.3203 39.2286V33.2286ZM29.6917 33.2286H25.3203V39.2286H29.6917V33.2286ZM29.6917 33.2286L29.6917 33.2286V39.2286C33.0054 39.2286 35.6917 36.5423 35.6917 33.2286H29.6917ZM29.6917 31.6857V33.2286H35.6917V31.6857H29.6917ZM29.692 31.6839C29.6917 31.6828 29.6916 31.6821 29.6915 31.6819C29.6915 31.6817 29.6917 31.6829 29.6917 31.6857H35.6917C35.6917 31.1328 35.6161 30.5927 35.4729 30.0775L29.692 31.6839Z" fill="#001529" mask="url(#path-7-inside-1_862_1834)"/>
<path d="M25 34L30 34V40H25V34Z" stroke="#001529" stroke-width="3"/>
</svg>
