<svg width="37" height="32" viewBox="0 0 37 32" fill="none" xmlns="http://www.w3.org/2000/svg">
<path d="M20.1914 10.8047C20.1914 10.8047 20.1914 14.2422 20.1914 21.1172C20.1914 24.3984 19.3451 26.957 17.6523 28.793C15.9596 30.6159 13.5964 31.5273 10.5625 31.5273C6.92969 31.5273 4.16927 30.2708 2.28125 27.7578C1.03125 26.0651 0.40625 23.8516 0.40625 21.1172V11.0781C0.40625 7.96615 1.29818 5.4987 3.08203 3.67578C4.86589 1.83984 7.27474 0.921875 10.3086 0.921875C13.3034 0.921875 15.6992 1.82031 17.4961 3.61719C19.293 5.41406 20.1914 7.8099 20.1914 10.8047ZM5.71875 11.0781V20.9609C5.71875 22.7969 6.11589 24.2031 6.91016 25.1797C7.71745 26.1562 8.88281 26.6445 10.4062 26.6445C13.388 26.6445 14.8789 24.7891 14.8789 21.0781V11.0781C14.8789 9.38542 14.4818 8.08333 13.6875 7.17188C12.9062 6.26042 11.793 5.80469 10.3477 5.80469C8.91536 5.80469 7.78255 6.27344 6.94922 7.21094C6.12891 8.14844 5.71875 9.4375 5.71875 11.0781ZM31.0117 31C31.0117 31 31.0117 22.8164 31.0117 6.44922C31.0117 6.44922 29.7747 6.44922 27.3008 6.44922C27.3008 6.44922 27.3008 4.78255 27.3008 1.44922C27.3008 1.44922 30.3151 1.44922 36.3438 1.44922C36.3438 1.44922 36.3438 11.2995 36.3438 31C36.3438 31 34.5664 31 31.0117 31Z" fill="white"/>
</svg>
