<svg width="43" height="32" viewBox="0 0 43 32" fill="none" xmlns="http://www.w3.org/2000/svg">
<path d="M20.1914 10.8047C20.1914 10.8047 20.1914 14.2422 20.1914 21.1172C20.1914 24.3984 19.3451 26.957 17.6523 28.793C15.9596 30.6159 13.5964 31.5273 10.5625 31.5273C6.92969 31.5273 4.16927 30.2708 2.28125 27.7578C1.03125 26.0651 0.40625 23.8516 0.40625 21.1172V11.0781C0.40625 7.96615 1.29818 5.4987 3.08203 3.67578C4.86589 1.83984 7.27474 0.921875 10.3086 0.921875C13.3034 0.921875 15.6992 1.82031 17.4961 3.61719C19.293 5.41406 20.1914 7.8099 20.1914 10.8047ZM5.71875 11.0781V20.9609C5.71875 22.7969 6.11589 24.2031 6.91016 25.1797C7.71745 26.1562 8.88281 26.6445 10.4062 26.6445C13.388 26.6445 14.8789 24.7891 14.8789 21.0781V11.0781C14.8789 9.38542 14.4818 8.08333 13.6875 7.17188C12.9062 6.26042 11.793 5.80469 10.3477 5.80469C8.91536 5.80469 7.78255 6.27344 6.94922 7.21094C6.12891 8.14844 5.71875 9.4375 5.71875 11.0781ZM23.1406 31C23.1406 31 23.1406 29.4375 23.1406 26.3125C23.1406 26.3125 26.6497 22.9922 33.668 16.3516C34.8789 15.2188 35.7448 14.1901 36.2656 13.2656C36.7995 12.3411 37.0664 11.3971 37.0664 10.4336C37.0664 9.11849 36.6562 8.01823 35.8359 7.13281C35.0286 6.2474 34.013 5.80469 32.7891 5.80469C31.4089 5.80469 30.2956 6.33854 29.4492 7.40625C28.6029 8.47396 28.1797 9.88672 28.1797 11.6445H22.9453C22.9453 10.1732 23.0755 8.9362 23.3359 7.93359C23.5964 6.91797 24.026 5.95443 24.625 5.04297C25.4844 3.75391 26.6302 2.74479 28.0625 2.01562C29.4948 1.28646 31.0508 0.921875 32.7305 0.921875C35.4909 0.921875 37.7891 1.83333 39.625 3.65625C41.4609 5.47917 42.3789 7.76432 42.3789 10.5117C42.3789 12.3216 41.9622 13.9492 41.1289 15.3945C40.3086 16.8398 38.8177 18.5456 36.6562 20.5117L30.6211 26H42.2617V31H23.1406Z" fill="white"/>
</svg>
