<svg width="46" height="35" viewBox="0 0 46 35" fill="none" xmlns="http://www.w3.org/2000/svg">
<mask id="path-1-inside-1_862_1952" fill="white">
<path d="M39.1188 0H2C2 0 5.62146 5.23099 3.40063 11.1364C3.07195 12.0104 2.6153 12.8991 2 13.7879L27.9848 13.7879V8.48485H33.2879V13.7879L39.1188 13.7879C47.6041 13.7879 47.6041 0 39.1188 0Z"/>
</mask>
<path d="M2 0V-3C0.884166 -3 -0.139472 -2.3807 -0.657338 -1.39232C-1.1752 -0.403938 -1.10172 0.7902 -0.466577 1.70763L2 0ZM39.1188 13.7879V16.7879V13.7879ZM2 13.7879L-0.466577 12.0803C-1.10172 12.9977 -1.1752 14.1918 -0.657338 15.1802C-0.139472 16.1686 0.884166 16.7879 2 16.7879L2 13.7879ZM3.40063 11.1364L0.592629 10.0804H0.592629L3.40063 11.1364ZM27.9848 13.7879V16.7879C29.6417 16.7879 30.9848 15.4447 30.9848 13.7879H27.9848ZM27.9848 8.48485V5.48485C26.328 5.48485 24.9848 6.82799 24.9848 8.48485H27.9848ZM33.2879 8.48485H36.2879C36.2879 6.82799 34.9447 5.48485 33.2879 5.48485V8.48485ZM33.2879 13.7879H30.2879C30.2879 15.4447 31.631 16.7879 33.2879 16.7879V13.7879ZM2 3H39.1188V-3H2V3ZM39.1188 3C40.3385 3 41.0797 3.45661 41.5726 4.05736C42.1245 4.72989 42.4828 5.74802 42.4828 6.89394C42.4828 8.03986 42.1245 9.05799 41.5726 9.73052C41.0797 10.3313 40.3385 10.7879 39.1188 10.7879V16.7879C42.1418 16.7879 44.5826 15.521 46.211 13.5365C47.7804 11.6238 48.4828 9.19499 48.4828 6.89394C48.4828 4.59289 47.7804 2.16405 46.211 0.251351C44.5826 -1.73312 42.1418 -3 39.1188 -3V3ZM4.46658 15.4955C5.22079 14.4061 5.79257 13.2987 6.20863 12.1924L0.592629 10.0804C0.351324 10.722 0.00980067 11.3921 -0.466577 12.0803L4.46658 15.4955ZM6.20863 12.1924C7.62347 8.43017 7.15475 4.92968 6.40115 2.47366C6.02257 1.23983 5.56109 0.229554 5.1894 -0.480972C5.00264 -0.837972 4.83593 -1.12431 4.70944 -1.33079C4.64611 -1.43418 4.59259 -1.51798 4.55136 -1.58106C4.53074 -1.61261 4.51316 -1.63903 4.49894 -1.66016C4.49183 -1.67072 4.48555 -1.67997 4.48014 -1.68789C4.47744 -1.69185 4.47495 -1.69547 4.47269 -1.69877C4.47156 -1.70041 4.47048 -1.70197 4.46947 -1.70345C4.46896 -1.70419 4.46823 -1.70523 4.46798 -1.7056C4.46727 -1.70663 4.46658 -1.70763 2 0C-0.466577 1.70763 -0.467243 1.70667 -0.467896 1.70572C-0.468096 1.70543 -0.468736 1.70451 -0.469135 1.70393C-0.469935 1.70277 -0.470681 1.70169 -0.471375 1.70068C-0.472762 1.69866 -0.473939 1.69694 -0.47491 1.69552C-0.476851 1.69268 -0.477969 1.69102 -0.478298 1.69053C-0.478954 1.68955 -0.476467 1.69324 -0.471107 1.70144C-0.46037 1.71787 -0.438248 1.75222 -0.406894 1.8034C-0.344012 1.90605 -0.24515 2.07452 -0.127093 2.3002C0.110837 2.75503 0.415919 3.42159 0.665098 4.23368C1.16702 5.86949 1.39861 7.93719 0.592629 10.0804L6.20863 12.1924ZM27.9848 10.7879L2 10.7879L2 16.7879H27.9848V10.7879ZM30.9848 13.7879V8.48485H24.9848V13.7879H30.9848ZM27.9848 11.4848H33.2879V5.48485H27.9848V11.4848ZM39.1188 10.7879L33.2879 10.7879V16.7879H39.1188V10.7879ZM30.2879 8.48485V13.7879H36.2879V8.48485H30.2879Z" fill="white" mask="url(#path-1-inside-1_862_1952)"/>
<path d="M2 1.59106C6.77273 1.59106 6.77273 12.1971 2 12.1971" stroke="white" stroke-width="3" stroke-linecap="round"/>
<path d="M40.8108 22.8938C40.72 22.6858 40.6357 22.4779 40.5577 22.2703C39.295 18.9129 39.7045 15.7706 40.3952 13.5196C40.5536 13.0033 40.7279 12.5298 40.9029 12.106H34.7886V14.8484C34.7886 15.3461 34.5417 15.8114 34.1296 16.0905C33.7174 16.3695 33.1937 16.426 32.7315 16.2411L30.6371 15.4033L28.5427 16.2411C28.0805 16.426 27.5568 16.3695 27.1446 16.0905C26.7325 15.8114 26.4856 15.3461 26.4856 14.8484V12.106H8.36437C6.69388 12.106 5.5278 12.7651 4.751 13.7118C3.94474 14.6944 3.50042 16.0652 3.50042 17.4999C3.50042 18.9346 3.94474 20.3054 4.751 21.288C5.5278 22.2347 6.69388 22.8938 8.36437 22.8938H40.8108Z" stroke="white" stroke-width="3" stroke-linejoin="round"/>
<path d="M43.3623 12.197C38.5896 12.197 38.5896 22.8031 43.3623 22.8031" stroke="white" stroke-width="3" stroke-linecap="round"/>
<mask id="path-6-inside-2_862_1952" fill="white">
<rect x="2" y="21.2122" width="42.4242" height="13.7879" rx="1"/>
</mask>
<rect x="2" y="21.2122" width="42.4242" height="13.7879" rx="1" stroke="white" stroke-width="6" mask="url(#path-6-inside-2_862_1952)"/>
<path d="M9.4248 24.394L9.4248 32.8789" stroke="white" stroke-width="3" stroke-linecap="round"/>
<path d="M31.6973 23.3333V33.409" stroke="white" stroke-width="3" stroke-linecap="round"/>
<path d="M37 23.3333V33.409" stroke="white" stroke-width="3" stroke-linecap="round"/>
<path d="M23.7432 6.89404H37.531" stroke="white" stroke-width="3" stroke-linecap="round"/>
<path d="M26.3945 6.89404V18.0304L30.637 14.8486L34.8794 18.0304V6.89404H26.3945Z" stroke="white" stroke-width="3" stroke-linecap="round" stroke-linejoin="round"/>
</svg>
