<svg width="56" height="52" viewBox="0 0 56 52" fill="none" xmlns="http://www.w3.org/2000/svg">
<path d="M54 26L41 48.5167L15 48.5167L2 26L15 3.48334L41 3.48334L54 26Z" stroke="#001529" stroke-width="3.10448"/>
<path d="M37.8881 30.9201V33.9201C37.8892 34.1986 37.8322 34.4743 37.7206 34.7294C37.6091 34.9846 37.4454 35.2137 37.2402 35.402C37.035 35.5902 36.7927 35.7336 36.5289 35.8228C36.265 35.912 35.9855 35.9452 35.7081 35.9201C32.631 35.5857 29.6751 34.5342 27.0781 32.8501C24.6619 31.3148 22.6135 29.2663 21.0781 26.8501C19.3881 24.2413 18.3364 21.2711 18.0081 18.1801C17.9831 17.9036 18.016 17.6249 18.1046 17.3617C18.1932 17.0986 18.3357 16.8568 18.5229 16.6517C18.7101 16.4466 18.9379 16.2828 19.1919 16.1706C19.4459 16.0584 19.7205 16.0004 19.9981 16.0001H22.9981C23.4834 15.9953 23.9539 16.1672 24.3219 16.4836C24.6898 16.8001 24.9302 17.2395 24.9981 17.7201C25.1247 18.6802 25.3596 19.6228 25.6981 20.5301C25.8327 20.888 25.8618 21.277 25.782 21.651C25.7023 22.0249 25.517 22.3682 25.2481 22.6401L23.9781 23.9101C25.4017 26.4136 27.4746 28.4865 29.9781 29.9101L31.2481 28.6401C31.52 28.3712 31.8633 28.1859 32.2372 28.1062C32.6112 28.0264 33.0002 28.0556 33.3581 28.1901C34.2654 28.5286 35.2081 28.7635 36.1681 28.8901C36.6539 28.9586 37.0975 29.2033 37.4146 29.5776C37.7318 29.9519 37.9003 30.4297 37.8881 30.9201Z" stroke="black" stroke-width="3" stroke-linecap="round" stroke-linejoin="round"/>
</svg>
