<svg width="56" height="52" viewBox="0 0 56 52" fill="none" xmlns="http://www.w3.org/2000/svg">
<path d="M54 26L41 48.5167L15 48.5167L2 26L15 3.48334L41 3.48334L54 26Z" stroke="#001529" stroke-width="3.10448"/>
<path d="M37 24C37 31 28 37 28 37C28 37 19 31 19 24C19 21.6131 19.9482 19.3239 21.636 17.636C23.3239 15.9482 25.6131 15 28 15C30.3869 15 32.6761 15.9482 34.364 17.636C36.0518 19.3239 37 21.6131 37 24Z" stroke="black" stroke-width="3" stroke-linecap="round" stroke-linejoin="round"/>
<path d="M28 27C29.6569 27 31 25.6569 31 24C31 22.3431 29.6569 21 28 21C26.3431 21 25 22.3431 25 24C25 25.6569 26.3431 27 28 27Z" stroke="black" stroke-width="3" stroke-linecap="round" stroke-linejoin="round"/>
</svg>
